<svg width="400" height="400" viewBox="0 0 400 400" fill="none" xmlns="http://www.w3.org/2000/svg">
<g clip-path="url(#clip0_1_2)">
<path opacity="0.15" d="M200 396C308.248 396 396 308.248 396 200C396 91.7522 308.248 4 200 4C91.7522 4 4 91.7522 4 200C4 308.248 91.7522 396 200 396Z" fill="#00E5FF"/>
<path d="M200 378C298.307 378 378 298.307 378 200C378 101.693 298.307 22 200 22C101.693 22 22 101.693 22 200C22 298.307 101.693 378 200 378Z" fill="url(#paint0_radial_1_2)"/>
<mask id="mask0_1_2" style="mask-type:luminance" maskUnits="userSpaceOnUse" x="20" y="20" width="360" height="360">
<path d="M200 380C299.411 380 380 299.411 380 200C380 100.589 299.411 20 200 20C100.589 20 20 100.589 20 200C20 299.411 100.589 380 200 380Z" fill="white"/>
</mask>
<g mask="url(#mask0_1_2)">
<g opacity="0.12">
<path d="M40 280H120" stroke="#00E5FF" stroke-width="2"/>
<path d="M120 280V320" stroke="#00E5FF" stroke-width="2"/>
<path d="M280 280H360" stroke="#00E5FF" stroke-width="2"/>
<path d="M280 280V320" stroke="#00E5FF" stroke-width="2"/>
<path d="M60 120V160" stroke="#00E5FF" stroke-width="2"/>
<path d="M340 120V160" stroke="#00E5FF" stroke-width="2"/>
<path d="M120 325C122.761 325 125 322.761 125 320C125 317.239 122.761 315 120 315C117.239 315 115 317.239 115 320C115 322.761 117.239 325 120 325Z" fill="#00E5FF" stroke="#00E5FF" stroke-width="2"/>
<path d="M280 325C282.761 325 285 322.761 285 320C285 317.239 282.761 315 280 315C277.239 315 275 317.239 275 320C275 322.761 277.239 325 280 325Z" fill="#00E5FF" stroke="#00E5FF" stroke-width="2"/>
<path d="M60 165C62.7614 165 65 162.761 65 160C65 157.239 62.7614 155 60 155C57.2386 155 55 157.239 55 160C55 162.761 57.2386 165 60 165Z" fill="#00E5FF" stroke="#00E5FF" stroke-width="2"/>
<path d="M340 165C342.761 165 345 162.761 345 160C345 157.239 342.761 155 340 155C337.239 155 335 157.239 335 160C335 162.761 337.239 165 340 165Z" fill="#00E5FF" stroke="#00E5FF" stroke-width="2"/>
</g>
</g>
<path d="M202 288C235.137 288 262 268.301 262 244C262 219.699 235.137 200 202 200C168.863 200 142 219.699 142 244C142 268.301 168.863 288 202 288Z" fill="url(#paint1_radial_1_2)"/>
<path d="M202 276C221.882 276 238 263.464 238 248C238 232.536 221.882 220 202 220C182.118 220 166 232.536 166 248C166 263.464 182.118 276 202 276Z" fill="url(#paint2_radial_1_2)"/>
<path d="M146.652 270.63C155.057 267.899 157.996 253.763 153.217 239.056C148.438 224.349 137.752 214.64 129.348 217.37C120.943 220.101 118.004 234.237 122.783 248.944C127.562 263.651 138.248 273.36 146.652 270.63Z" fill="url(#paint3_radial_1_2)"/>
<path d="M126 274C133.732 274 140 269.523 140 264C140 258.477 133.732 254 126 254C118.268 254 112 258.477 112 264C112 269.523 118.268 274 126 274Z" fill="#FFBF00"/>
<path d="M118 272C120.761 272 123 270.209 123 268C123 265.791 120.761 264 118 264C115.239 264 113 265.791 113 268C113 270.209 115.239 272 118 272Z" fill="#FFF0A0"/>
<path d="M126 276C128.761 276 131 274.209 131 272C131 269.791 128.761 268 126 268C123.239 268 121 269.791 121 272C121 274.209 123.239 276 126 276Z" fill="#FFF0A0"/>
<path d="M134 272C136.761 272 139 270.209 139 268C139 265.791 136.761 264 134 264C131.239 264 129 265.791 129 268C129 270.209 131.239 272 134 272Z" fill="#FFF0A0"/>
<path d="M257.348 270.63C265.752 273.36 276.438 263.651 281.217 248.944C285.996 234.237 283.057 220.101 274.652 217.37C266.248 214.64 255.562 224.349 250.783 239.056C246.004 253.763 248.943 267.899 257.348 270.63Z" fill="url(#paint4_radial_1_2)"/>
<path d="M278 274C285.732 274 292 269.523 292 264C292 258.477 285.732 254 278 254C270.268 254 264 258.477 264 264C264 269.523 270.268 274 278 274Z" fill="#FFBF00"/>
<path d="M270 272C272.761 272 275 270.209 275 268C275 265.791 272.761 264 270 264C267.239 264 265 265.791 265 268C265 270.209 267.239 272 270 272Z" fill="#FFF0A0"/>
<path d="M278 276C280.761 276 283 274.209 283 272C283 269.791 280.761 268 278 268C275.239 268 273 269.791 273 272C273 274.209 275.239 276 278 276Z" fill="#FFF0A0"/>
<path d="M286 272C288.761 272 291 270.209 291 268C291 265.791 288.761 264 286 264C283.239 264 281 265.791 281 268C281 270.209 283.239 272 286 272Z" fill="#FFF0A0"/>
<path d="M296 247H268C265.791 247 264 248.791 264 251V263C264 265.209 265.791 267 268 267H296C298.209 267 300 265.209 300 263V251C300 248.791 298.209 247 296 247Z" fill="#0D1B2A" stroke="#00E5FF" stroke-width="2.4"/>
<path d="M271 244H269C268.448 244 268 244.448 268 245V251C268 251.552 268.448 252 269 252H271C271.552 252 272 251.552 272 251V245C272 244.448 271.552 244 271 244Z" fill="#00E5FF"/>
<path d="M278 244H276C275.448 244 275 244.448 275 245V251C275 251.552 275.448 252 276 252H278C278.552 252 279 251.552 279 251V245C279 244.448 278.552 244 278 244Z" fill="#00E5FF"/>
<path d="M285 244H283C282.448 244 282 244.448 282 245V251C282 251.552 282.448 252 283 252H285C285.552 252 286 251.552 286 251V245C286 244.448 285.552 244 285 244Z" fill="#00E5FF"/>
<path opacity="0.25" d="M294 251H270C268.895 251 268 251.895 268 253V259C268 260.105 268.895 261 270 261H294C295.105 261 296 260.105 296 259V253C296 251.895 295.105 251 294 251Z" fill="#00E5FF"/>
<path d="M275.453 259V253.909H277.461C277.847 253.909 278.176 253.983 278.448 254.13C278.72 254.276 278.927 254.479 279.07 254.739C279.214 254.998 279.286 255.296 279.286 255.634C279.286 255.972 279.213 256.271 279.067 256.529C278.921 256.788 278.71 256.989 278.433 257.133C278.158 257.277 277.825 257.349 277.434 257.349H276.154V256.487H277.26C277.467 256.487 277.638 256.451 277.772 256.38C277.908 256.307 278.009 256.207 278.075 256.079C278.143 255.95 278.177 255.802 278.177 255.634C278.177 255.465 278.143 255.318 278.075 255.192C278.009 255.064 277.908 254.966 277.772 254.896C277.636 254.825 277.464 254.789 277.255 254.789H276.529V259H275.453ZM284.663 256.455C284.663 257.01 284.558 257.482 284.348 257.871C284.139 258.261 283.854 258.558 283.492 258.764C283.133 258.968 282.728 259.07 282.279 259.07C281.827 259.07 281.421 258.967 281.061 258.761C280.702 258.556 280.417 258.258 280.209 257.869C280 257.48 279.895 257.008 279.895 256.455C279.895 255.899 280 255.427 280.209 255.038C280.417 254.648 280.702 254.352 281.061 254.148C281.421 253.942 281.827 253.839 282.279 253.839C282.728 253.839 283.133 253.942 283.492 254.148C283.854 254.352 284.139 254.648 284.348 255.038C284.558 255.427 284.663 255.899 284.663 256.455ZM283.572 256.455C283.572 256.095 283.518 255.792 283.41 255.545C283.304 255.298 283.154 255.111 282.96 254.983C282.767 254.855 282.54 254.792 282.279 254.792C282.019 254.792 281.792 254.855 281.598 254.983C281.404 255.111 281.254 255.298 281.146 255.545C281.04 255.792 280.987 256.095 280.987 256.455C280.987 256.814 281.04 257.117 281.146 257.364C281.254 257.611 281.404 257.799 281.598 257.926C281.792 258.054 282.019 258.118 282.279 258.118C282.54 258.118 282.767 258.054 282.96 257.926C283.154 257.799 283.304 257.611 283.41 257.364C283.518 257.117 283.572 256.814 283.572 256.455ZM285.461 259V253.909H286.537V258.113H288.719V259H285.461Z" fill="#00E5FF"/>
<path d="M202 228C232.928 228 258 202.928 258 172C258 141.072 232.928 116 202 116C171.072 116 146 141.072 146 172C146 202.928 171.072 228 202 228Z" fill="url(#paint5_radial_1_2)"/>
<path d="M202 206C220.778 206 236 193.464 236 178C236 162.536 220.778 150 202 150C183.222 150 168 162.536 168 178C168 193.464 183.222 206 202 206Z" fill="url(#paint6_radial_1_2)"/>
<path d="M152 138L162 104L182 140L152 138Z" fill="url(#paint7_radial_1_2)"/>
<path d="M156 134L164 110L178 134H156Z" fill="#FF9EB5"/>
<path d="M222 140L242 104L252 138L222 140Z" fill="url(#paint8_radial_1_2)"/>
<path d="M226 134L242 110L248 134H226Z" fill="#FF9EB5"/>
<path d="M184 183C190.627 183 196 177.18 196 170C196 162.82 190.627 157 184 157C177.373 157 172 162.82 172 170C172 177.18 177.373 183 184 183Z" fill="white"/>
<path d="M220 183C226.627 183 232 177.18 232 170C232 162.82 226.627 157 220 157C213.373 157 208 162.82 208 170C208 177.18 213.373 183 220 183Z" fill="white"/>
<path d="M184 182C188.971 182 193 177.523 193 172C193 166.477 188.971 162 184 162C179.029 162 175 166.477 175 172C175 177.523 179.029 182 184 182Z" fill="#1DE9FF"/>
<path d="M220 182C224.971 182 229 177.523 229 172C229 166.477 224.971 162 220 162C215.029 162 211 166.477 211 172C211 177.523 215.029 182 220 182Z" fill="#1DE9FF"/>
<path d="M185 180C187.761 180 190 176.866 190 173C190 169.134 187.761 166 185 166C182.239 166 180 169.134 180 173C180 176.866 182.239 180 185 180Z" fill="#0A1628"/>
<path d="M221 180C223.761 180 226 176.866 226 173C226 169.134 223.761 166 221 166C218.239 166 216 169.134 216 173C216 176.866 218.239 180 221 180Z" fill="#0A1628"/>
<path opacity="0.9" d="M180 170.4C181.325 170.4 182.4 169.325 182.4 168C182.4 166.675 181.325 165.6 180 165.6C178.675 165.6 177.6 166.675 177.6 168C177.6 169.325 178.675 170.4 180 170.4Z" fill="white"/>
<path opacity="0.9" d="M216 170.4C217.325 170.4 218.4 169.325 218.4 168C218.4 166.675 217.325 165.6 216 165.6C214.675 165.6 213.6 166.675 213.6 168C213.6 169.325 214.675 170.4 216 170.4Z" fill="white"/>
<path opacity="0.6" d="M188 177.4C188.773 177.4 189.4 176.773 189.4 176C189.4 175.227 188.773 174.6 188 174.6C187.227 174.6 186.6 175.227 186.6 176C186.6 176.773 187.227 177.4 188 177.4Z" fill="white"/>
<path opacity="0.6" d="M224 177.4C224.773 177.4 225.4 176.773 225.4 176C225.4 175.227 224.773 174.6 224 174.6C223.227 174.6 222.6 175.227 222.6 176C222.6 176.773 223.227 177.4 224 177.4Z" fill="white"/>
<path d="M202 184L197 179H207L202 184Z" fill="#FF7BAC"/>
<path d="M196 186C200 190 204 190 208 186" stroke="#CC5588" stroke-width="2.4" stroke-linecap="round"/>
<path d="M202 184V186" stroke="#CC5588" stroke-width="2.4"/>
<path opacity="0.6" d="M142 178L182 182" stroke="white" stroke-width="1.6"/>
<path opacity="0.6" d="M142 184H182" stroke="white" stroke-width="1.6"/>
<path opacity="0.6" d="M142 190L182 186" stroke="white" stroke-width="1.6"/>
<path opacity="0.6" d="M222 182L262 178" stroke="white" stroke-width="1.6"/>
<path opacity="0.6" d="M222 184H262" stroke="white" stroke-width="1.6"/>
<path opacity="0.6" d="M222 186L262 190" stroke="white" stroke-width="1.6"/>
<path opacity="0.5" d="M170 194C175.523 194 180 191.314 180 188C180 184.686 175.523 182 170 182C164.477 182 160 184.686 160 188C160 191.314 164.477 194 170 194Z" fill="#FF9EB5"/>
<path opacity="0.5" d="M234 194C239.523 194 244 191.314 244 188C244 184.686 239.523 182 234 182C228.477 182 224 184.686 224 188C224 191.314 228.477 194 234 194Z" fill="#FF9EB5"/>
<path d="M252 122H152C148.686 122 146 124.686 146 128V132C146 135.314 148.686 138 152 138H252C255.314 138 258 135.314 258 132V128C258 124.686 255.314 122 252 122Z" fill="url(#paint9_radial_1_2)"/>
<path opacity="0.4" d="M162 130H186" stroke="white" stroke-width="1.6"/>
<path opacity="0.4" d="M186 130V124" stroke="white" stroke-width="1.6"/>
<path opacity="0.5" d="M186 126.4C187.325 126.4 188.4 125.325 188.4 124C188.4 122.675 187.325 121.6 186 121.6C184.675 121.6 183.6 122.675 183.6 124C183.6 125.325 184.675 126.4 186 126.4Z" fill="white"/>
<path opacity="0.4" d="M218 130H242" stroke="white" stroke-width="1.6"/>
<path opacity="0.5" d="M218 132.4C219.325 132.4 220.4 131.325 220.4 130C220.4 128.675 219.325 127.6 218 127.6C216.675 127.6 215.6 128.675 215.6 130C215.6 131.325 216.675 132.4 218 132.4Z" fill="white"/>
<path d="M232 102H172C168.686 102 166 104.686 166 108V120C166 123.314 168.686 126 172 126H232C235.314 126 238 123.314 238 120V108C238 104.686 235.314 102 232 102Z" fill="#0891B2"/>
<path opacity="0.3" d="M182 102V126" stroke="#00E5FF" stroke-width="1.2"/>
<path opacity="0.3" d="M202 102V126" stroke="#00E5FF" stroke-width="1.2"/>
<path opacity="0.3" d="M222 102V126" stroke="#00E5FF" stroke-width="1.2"/>
<path opacity="0.3" d="M166 114H238" stroke="#00E5FF" stroke-width="1.2"/>
<path d="M212 88H192C189.791 88 188 89.7909 188 92V104C188 106.209 189.791 108 192 108H212C214.209 108 216 106.209 216 104V92C216 89.7909 214.209 88 212 88Z" fill="#0A1628" stroke="#00E5FF" stroke-width="2.4"/>
<path d="M197 83H195C194.448 83 194 83.4477 194 84V90C194 90.5523 194.448 91 195 91H197C197.552 91 198 90.5523 198 90V84C198 83.4477 197.552 83 197 83Z" fill="#00E5FF"/>
<path d="M205 83H203C202.448 83 202 83.4477 202 84V90C202 90.5523 202.448 91 203 91H205C205.552 91 206 90.5523 206 90V84C206 83.4477 205.552 83 205 83Z" fill="#00E5FF"/>
<path d="M213 83H211C210.448 83 210 83.4477 210 84V90C210 90.5523 210.448 91 211 91H213C213.552 91 214 90.5523 214 90V84C214 83.4477 213.552 83 213 83Z" fill="#00E5FF"/>
<path d="M197 104H195C194.448 104 194 104.448 194 105V109C194 109.552 194.448 110 195 110H197C197.552 110 198 109.552 198 109V105C198 104.448 197.552 104 197 104Z" fill="#00E5FF"/>
<path d="M205 104H203C202.448 104 202 104.448 202 105V109C202 109.552 202.448 110 203 110H205C205.552 110 206 109.552 206 109V105C206 104.448 205.552 104 205 104Z" fill="#00E5FF"/>
<path d="M213 104H211C210.448 104 210 104.448 210 105V109C210 109.552 210.448 110 211 110H213C213.552 110 214 109.552 214 109V105C214 104.448 213.552 104 213 104Z" fill="#00E5FF"/>
<g opacity="0.9" filter="url(#filter0_f_1_2)">
<path d="M202 103C204.761 103 207 100.761 207 98C207 95.2386 204.761 93 202 93C199.239 93 197 95.2386 197 98C197 100.761 199.239 103 202 103Z" fill="#00E5FF"/>
</g>
<path d="M202 100.4C203.325 100.4 204.4 99.3255 204.4 98C204.4 96.6745 203.325 95.6 202 95.6C200.675 95.6 199.6 96.6745 199.6 98C199.6 99.3255 200.675 100.4 202 100.4Z" fill="white"/>
<path d="M258 130L262 160" stroke="#00E5FF" stroke-width="3"/>
<path d="M262 134C264.209 134 266 132.209 266 130C266 127.791 264.209 126 262 126C259.791 126 258 127.791 258 130C258 132.209 259.791 134 262 134Z" fill="#00E5FF"/>
<path d="M262 160L256 172" stroke="#00E5FF" stroke-width="2.4"/>
<path d="M262 160V174" stroke="#00E5FF" stroke-width="2.4"/>
<path d="M262 160L268 172" stroke="#00E5FF" stroke-width="2.4"/>
<path d="M324 112C339.464 112 352 99.464 352 84C352 68.536 339.464 56 324 56C308.536 56 296 68.536 296 84C296 99.464 308.536 112 324 112Z" fill="#0A1628" stroke="#00E5FF" stroke-width="4"/>
<path opacity="0.15" d="M324 104C335.046 104 344 95.0457 344 84C344 72.9543 335.046 64 324 64C312.954 64 304 72.9543 304 84C304 95.0457 312.954 104 324 104Z" fill="#00E5FF"/>
<path d="M324.498 95.562L316.534 90.7V81.372L324.498 76.51L332.462 81.372V90.7L324.498 95.562ZM324.498 94.22L331.362 90.04V82.032L324.498 77.852L317.634 82.032V90.04L324.498 94.22Z" fill="#00E5FF"/>
<path opacity="0.12" d="M32 332C45.0617 365.957 68.1071 395.159 98.098 415.756C128.089 436.353 163.617 447.378 200 447.378C236.383 447.378 271.911 436.353 301.902 415.756C331.893 395.159 354.938 365.957 368 332" fill="#00E5FF"/>
<path opacity="0.3" d="M36 340C48.865 373.031 71.4045 401.408 100.667 421.414C129.93 441.421 164.552 452.125 200 452.125C235.448 452.125 270.07 441.421 299.333 421.414C328.596 401.408 351.135 373.031 364 340" stroke="#00E5FF"/>
<path d="M175.968 325V303.182H184.576C186.23 303.182 187.64 303.498 188.805 304.13C189.97 304.755 190.858 305.625 191.468 306.74C192.086 307.848 192.395 309.126 192.395 310.575C192.395 312.024 192.083 313.303 191.458 314.411C190.833 315.518 189.927 316.381 188.741 316.999C187.562 317.617 186.134 317.926 184.458 317.926H178.972V314.229H183.713C184.6 314.229 185.332 314.077 185.907 313.771C186.49 313.459 186.923 313.029 187.207 312.482C187.498 311.928 187.644 311.293 187.644 310.575C187.644 309.851 187.498 309.219 187.207 308.679C186.923 308.132 186.49 307.71 185.907 307.411C185.325 307.106 184.586 306.953 183.691 306.953H180.581V325H175.968ZM196.633 325H191.689L199.221 303.182H205.166L212.687 325H207.744L202.279 308.168H202.108L196.633 325ZM196.324 316.424H208V320.025H196.324V316.424ZM211.808 303.182H216.975L221.95 312.578H222.163L227.139 303.182H232.305L224.347 317.287V325H219.766V317.287L211.808 303.182Z" fill="white"/>
<path d="M279.464 325.277C278.761 325.277 278.157 325.028 277.653 324.531C277.156 324.027 276.907 323.423 276.907 322.72C276.907 322.024 277.156 321.428 277.653 320.93C278.157 320.433 278.761 320.185 279.464 320.185C280.146 320.185 280.742 320.433 281.254 320.93C281.765 321.428 282.021 322.024 282.021 322.72C282.021 323.189 281.9 323.619 281.658 324.009C281.424 324.393 281.115 324.702 280.732 324.936C280.348 325.163 279.925 325.277 279.464 325.277ZM290.445 303.182V325H285.832V303.182H290.445ZM301.974 325H294.24V303.182H302.038C304.233 303.182 306.122 303.619 307.706 304.492C309.29 305.359 310.508 306.605 311.36 308.232C312.219 309.858 312.649 311.804 312.649 314.07C312.649 316.342 312.219 318.295 311.36 319.929C310.508 321.562 309.283 322.816 307.685 323.69C306.094 324.563 304.19 325 301.974 325ZM298.853 321.048H301.783C303.146 321.048 304.293 320.806 305.224 320.323C306.161 319.833 306.864 319.077 307.333 318.054C307.809 317.024 308.047 315.696 308.047 314.07C308.047 312.457 307.809 311.14 307.333 310.117C306.864 309.094 306.165 308.342 305.234 307.859C304.304 307.376 303.157 307.134 301.793 307.134H298.853V321.048Z" fill="#00E5FF"/>
<path d="M162.133 344V336H164.836C165.464 336 165.977 336.113 166.375 336.34C166.777 336.564 167.073 336.867 167.266 337.25C167.459 337.633 167.555 338.06 167.555 338.531C167.555 339.003 167.459 339.431 167.266 339.816C167.076 340.202 166.782 340.509 166.383 340.738C165.985 340.965 165.474 341.078 164.852 341.078H162.915V340.219H164.821C165.25 340.219 165.596 340.145 165.856 339.996C166.116 339.848 166.305 339.647 166.422 339.395C166.542 339.139 166.602 338.852 166.602 338.531C166.602 338.211 166.542 337.924 166.422 337.672C166.305 337.419 166.115 337.221 165.852 337.078C165.589 336.932 165.24 336.859 164.805 336.859H163.102V344H162.133ZM175.866 340C175.866 340.844 175.713 341.573 175.409 342.187C175.104 342.802 174.686 343.276 174.155 343.609C173.624 343.943 173.017 344.109 172.334 344.109C171.652 344.109 171.045 343.943 170.514 343.609C169.983 343.276 169.565 342.802 169.26 342.187C168.956 341.573 168.803 340.844 168.803 340C168.803 339.156 168.956 338.427 169.26 337.812C169.565 337.198 169.983 336.724 170.514 336.391C171.045 336.057 171.652 335.891 172.334 335.891C173.017 335.891 173.624 336.057 174.155 336.391C174.686 336.724 175.104 337.198 175.409 337.812C175.713 338.427 175.866 339.156 175.866 340ZM174.928 340C174.928 339.307 174.812 338.723 174.581 338.246C174.351 337.77 174.04 337.409 173.647 337.164C173.256 336.919 172.819 336.797 172.334 336.797C171.85 336.797 171.411 336.919 171.018 337.164C170.627 337.409 170.316 337.77 170.084 338.246C169.855 338.723 169.741 339.307 169.741 340C169.741 340.693 169.855 341.277 170.084 341.754C170.316 342.23 170.627 342.591 171.018 342.836C171.411 343.081 171.85 343.203 172.334 343.203C172.819 343.203 173.256 343.081 173.647 342.836C174.04 342.591 174.351 342.23 174.581 341.754C174.812 341.277 174.928 340.693 174.928 340ZM177.495 344V336H178.463V343.141H182.182V344H177.495ZM184.651 336V344H183.682V336H184.651ZM193.031 338.5H192.062C192.005 338.221 191.904 337.977 191.761 337.766C191.621 337.555 191.449 337.378 191.246 337.234C191.045 337.089 190.822 336.979 190.578 336.906C190.333 336.833 190.078 336.797 189.812 336.797C189.328 336.797 188.889 336.919 188.496 337.164C188.105 337.409 187.794 337.77 187.562 338.246C187.333 338.723 187.218 339.307 187.218 340C187.218 340.693 187.333 341.277 187.562 341.754C187.794 342.23 188.105 342.591 188.496 342.836C188.889 343.081 189.328 343.203 189.812 343.203C190.078 343.203 190.333 343.167 190.578 343.094C190.822 343.021 191.045 342.913 191.246 342.77C191.449 342.624 191.621 342.445 191.761 342.234C191.904 342.021 192.005 341.776 192.062 341.5H193.031C192.958 341.909 192.825 342.275 192.632 342.598C192.44 342.921 192.2 343.195 191.914 343.422C191.627 343.646 191.306 343.816 190.949 343.934C190.595 344.051 190.216 344.109 189.812 344.109C189.13 344.109 188.523 343.943 187.992 343.609C187.46 343.276 187.042 342.802 186.738 342.187C186.433 341.573 186.281 340.844 186.281 340C186.281 339.156 186.433 338.427 186.738 337.812C187.042 337.198 187.46 336.724 187.992 336.391C188.523 336.057 189.13 335.891 189.812 335.891C190.216 335.891 190.595 335.949 190.949 336.066C191.306 336.184 191.627 336.355 191.914 336.582C192.2 336.806 192.44 337.079 192.632 337.402C192.825 337.723 192.958 338.089 193.031 338.5ZM193.909 336H195.018L197.237 339.734H197.331L199.549 336H200.659L197.768 340.703V344H196.799V340.703L193.909 336ZM205.005 344V336H209.833V336.859H205.974V339.562H209.583V340.422H205.974V343.141H209.896V344H205.005ZM217.923 336V344H216.986L212.626 337.719H212.548V344H211.58V336H212.517L216.892 342.297H216.97V336H217.923ZM225.331 338.5C225.245 338.237 225.131 338.001 224.991 337.793C224.853 337.582 224.687 337.402 224.495 337.254C224.305 337.105 224.088 336.992 223.846 336.914C223.604 336.836 223.338 336.797 223.049 336.797C222.575 336.797 222.144 336.919 221.756 337.164C221.368 337.409 221.06 337.77 220.831 338.246C220.601 338.723 220.487 339.307 220.487 340C220.487 340.693 220.603 341.277 220.834 341.754C221.066 342.23 221.38 342.591 221.776 342.836C222.172 343.081 222.617 343.203 223.112 343.203C223.57 343.203 223.974 343.105 224.323 342.91C224.674 342.712 224.948 342.434 225.143 342.074C225.341 341.712 225.44 341.286 225.44 340.797L225.737 340.859H223.331V340H226.377V340.859C226.377 341.518 226.237 342.091 225.956 342.578C225.677 343.065 225.292 343.443 224.799 343.711C224.31 343.977 223.747 344.109 223.112 344.109C222.403 344.109 221.781 343.943 221.245 343.609C220.711 343.276 220.294 342.802 219.995 342.187C219.698 341.573 219.549 340.844 219.549 340C219.549 339.367 219.634 338.798 219.803 338.293C219.975 337.785 220.217 337.353 220.53 336.996C220.842 336.639 221.212 336.366 221.639 336.176C222.066 335.986 222.536 335.891 223.049 335.891C223.471 335.891 223.864 335.954 224.229 336.082C224.596 336.207 224.923 336.385 225.209 336.617C225.499 336.846 225.739 337.121 225.932 337.441C226.125 337.759 226.258 338.112 226.331 338.5H225.331ZM229.005 336V344H228.037V336H229.005ZM237.292 336V344H236.354L231.995 337.719H231.917V344H230.948V336H231.885L236.26 342.297H236.338V336H237.292ZM239.23 344V336H244.058V336.859H240.199V339.562H243.808V340.422H240.199V343.141H244.121V344H239.23Z" fill="#00E5FF"/>
<path opacity="0.4" d="M200 380C299.411 380 380 299.411 380 200C380 100.589 299.411 20 200 20C100.589 20 20 100.589 20 200C20 299.411 100.589 380 200 380Z" stroke="#00E5FF" stroke-width="3"/>
<path opacity="0.2" d="M200 386C302.725 386 386 302.725 386 200C386 97.275 302.725 14 200 14C97.275 14 14 97.275 14 200C14 302.725 97.275 386 200 386Z" stroke="#00E5FF"/>
</g>
<defs>
<filter id="filter0_f_1_2" x="189" y="85" width="26" height="26" filterUnits="userSpaceOnUse" color-interpolation-filters="sRGB">
<feFlood flood-opacity="0" result="BackgroundImageFix"/>
<feBlend mode="normal" in="SourceGraphic" in2="BackgroundImageFix" result="shape"/>
<feGaussianBlur stdDeviation="4" result="effect1_foregroundBlur_1_2"/>
</filter>
<radialGradient id="paint0_radial_1_2" cx="0" cy="0" r="1" gradientUnits="userSpaceOnUse" gradientTransform="translate(17822 12482) scale(23140)">
<stop stop-color="#0A2540"/>
<stop offset="1" stop-color="#060F1E"/>
</radialGradient>
<radialGradient id="paint1_radial_1_2" cx="0" cy="0" r="1" gradientUnits="userSpaceOnUse" gradientTransform="translate(5542 3720) scale(6600 4840)">
<stop stop-color="#FFE066"/>
<stop offset="1" stop-color="#FFBF00"/>
</radialGradient>
<radialGradient id="paint2_radial_1_2" cx="0" cy="0" r="1" gradientUnits="userSpaceOnUse" gradientTransform="translate(3766 3020) scale(3600 2800)">
<stop stop-color="#FFF5CC"/>
<stop offset="1" stop-color="#FFE9A0"/>
</radialGradient>
<radialGradient id="paint3_radial_1_2" cx="0" cy="0" r="1" gradientUnits="userSpaceOnUse" gradientTransform="translate(2175.85 1907.7) rotate(-18) scale(1760 3080)">
<stop stop-color="#FFE066"/>
<stop offset="1" stop-color="#FFBF00"/>
</radialGradient>
<radialGradient id="paint4_radial_1_2" cx="0" cy="0" r="1" gradientUnits="userSpaceOnUse" gradientTransform="translate(936.759 2787.78) rotate(18) scale(1760 3080)">
<stop stop-color="#FFE066"/>
<stop offset="1" stop-color="#FFBF00"/>
</radialGradient>
<radialGradient id="paint5_radial_1_2" cx="0" cy="0" r="1" gradientUnits="userSpaceOnUse" gradientTransform="translate(5186 4596) scale(6160)">
<stop stop-color="#FFE066"/>
<stop offset="1" stop-color="#FFBF00"/>
</radialGradient>
<radialGradient id="paint6_radial_1_2" cx="0" cy="0" r="1" gradientUnits="userSpaceOnUse" gradientTransform="translate(3568 2950) scale(3400 2800)">
<stop stop-color="#FFF5CC"/>
<stop offset="1" stop-color="#FFE9A0"/>
</radialGradient>
<radialGradient id="paint7_radial_1_2" cx="0" cy="0" r="1" gradientUnits="userSpaceOnUse" gradientTransform="translate(1502 1544) scale(1650 1980)">
<stop stop-color="#FFE066"/>
<stop offset="1" stop-color="#FFBF00"/>
</radialGradient>
<radialGradient id="paint8_radial_1_2" cx="0" cy="0" r="1" gradientUnits="userSpaceOnUse" gradientTransform="translate(1572 1544) scale(1650 1980)">
<stop stop-color="#FFE066"/>
<stop offset="1" stop-color="#FFBF00"/>
</radialGradient>
<radialGradient id="paint9_radial_1_2" cx="0" cy="0" r="1" gradientUnits="userSpaceOnUse" gradientTransform="translate(5746 602) scale(6720 960)">
<stop stop-color="#00D4F5"/>
<stop offset="1" stop-color="#0891B2"/>
</radialGradient>
<clipPath id="clip0_1_2">
<rect width="400" height="400" fill="white"/>
</clipPath>
</defs>
</svg>
